<svg xmlns="http://www.w3.org/2000/svg" viewBox="0 0 16 16" role="img" aria-label="freeaudiotrim.com icon"><rect width="16" height="16" rx="3" fill="#0b0d12"/><polygon fill="#fff" points="1.58 9.31 .91 9.31 .61 8.98 .61 7.11 .91 6.78 1.58 6.78 1.87 7.11 1.87 8.98 1.58 9.31"/><polygon fill="#fff" points="5.44 10.68 4.77 10.68 4.48 10.35 4.48 5.74 4.77 5.41 5.44 5.41 5.73 5.74 5.73 10.35 5.44 10.68"/><polygon fill="#53aaf9" points="7.37 13.71 6.7 13.71 6.41 13.38 6.41 2.62 6.7 2.29 7.37 2.29 7.66 2.62 7.66 13.38 7.37 13.71"/><polygon fill="#fff" points="9.3 12.39 8.63 12.39 8.34 12.06 8.34 3.85 8.63 3.52 9.3 3.52 9.59 3.85 9.59 12.06 9.3 12.39"/><polygon fill="#fff" points="11.23 10.84 10.56 10.84 10.27 10.51 10.27 5.57 10.56 5.25 11.23 5.25 11.52 5.57 11.52 10.51 11.23 10.84"/><polygon fill="#fff" points="13.16 9.84 12.49 9.84 12.2 9.51 12.2 6.58 12.49 6.25 13.16 6.25 13.45 6.58 13.45 9.51 13.16 9.84"/><polygon fill="#fff" points="15.09 9.31 14.42 9.31 14.13 8.98 14.13 7.11 14.42 6.78 15.09 6.78 15.39 7.11 15.39 8.98 15.09 9.31"/><polygon fill="#fff" points="3.51 11.92 2.84 11.92 2.55 11.59 2.55 4.5 2.84 4.17 3.51 4.17 3.8 4.5 3.8 11.59 3.51 11.92"/></svg>
