<?xml version="1.0" encoding="UTF-8"?>
<svg id="Layer_2" xmlns="http://www.w3.org/2000/svg" version="1.1" viewBox="0 0 935.5 144.7">
  <!-- Generator: Adobe Illustrator 30.4.0, SVG Export Plug-In . SVG Version: 2.1.4 Build 226)  -->
  <defs>
    <style>
      .st0 {
        opacity: .6;
      }

      .st1 {
        opacity: .4;
      }

      .st2 {
        fill: #ff9f1c;
      }

      .st3 {
        fill: #5b6cef;
      }

      .st4 {
        opacity: .3;
      }

      .st5 {
        fill: #959595;
      }

      .st6 {
        fill: #abb2ca;
      }

      .st7 {
        opacity: .8;
      }
    </style>
  </defs>
  <g id="Layer_1-2">
    <g>
      <g>
        <path class="st3" d="M71.2,0h0c4.5,0,8.1,3.6,8.1,8.1v128.5c0,4.5-3.6,8.1-8.1,8.1h0c-4.5,0-8.1-3.6-8.1-8.1V8.1c0-4.5,3.6-8.1,8.1-8.1Z"/>
        <path class="st3" d="M45.9,18.3h0c4.5,0,8.1,3.6,8.1,8.1v87c0,4.5-3.6,8.1-8.1,8.1h0c-4.5,0-8.1-3.6-8.1-8.1V26.4c0-4.5,3.6-8.1,8.1-8.1Z"/>
        <path class="st3" d="M96.6,34.3h0c4.5,0,8.1,3.6,8.1,8.1v57.8c0,4.5-3.6,8.1-8.1,8.1h0c-4.5,0-8.1-3.6-8.1-8.1v-57.8c0-4.5,3.6-8.1,8.1-8.1Z"/>
        <path class="st3" d="M5.1,55.6h0c2.8,0,5.1,2.3,5.1,5.1v18.3c0,2.8-2.3,5.1-5.1,5.1h0c-2.8,0-5.1-2.3-5.1-5.1v-18.3c0-2.8,2.3-5.1,5.1-5.1Z"/>
        <path class="st3" d="M23.8,37.4h0c3.6,0,6.4,2.9,6.4,6.4v52.8c0,3.6-2.9,6.4-6.4,6.4h0c-3.6,0-6.4-2.9-6.4-6.4v-52.8c0-3.6,2.9-6.4,6.4-6.4Z"/>
        <rect class="st3" x="112.7" y="60" width="14.3" height="22.6" rx="7.2" ry="7.2"/>
        <path class="st2" d="M187.4,75.4h-31.4c-2.3,0-4.1-1.9-4.1-4.2s1.9-4.2,4.1-4.2h31.4c2.3,0,4.1,1.9,4.1,4.2s-1.9,4.2-4.1,4.2Z"/>
        <g class="st7">
          <path class="st6" d="M211.6,75.5h-10.1c-2.3,0-4.1-1.9-4.1-4.2s1.9-4.2,4.1-4.2h10.1c2.3,0,4.1,1.9,4.1,4.2s-1.9,4.2-4.1,4.2Z"/>
        </g>
        <path class="st6" d="M200.2,57.5h-44.3c-2.3,0-4.1-1.9-4.1-4.2s1.9-4.2,4.1-4.2h44.3c2.3,0,4.1,1.9,4.1,4.2s-1.9,4.2-4.1,4.2Z"/>
        <path class="st6" d="M187.4,39.6h-31.4c-2.3,0-4.1-1.9-4.1-4.2s1.9-4.1,4.1-4.1h31.4c2.3,0,4.1,1.9,4.1,4.1s-1.9,4.2-4.1,4.2Z"/>
        <g class="st0">
          <path class="st6" d="M200.2,92.8h-44.3c-2.3,0-4.1-1.9-4.1-4.2s1.9-4.2,4.1-4.2h44.3c2.3,0,4.1,1.9,4.1,4.2s-1.9,4.2-4.1,4.2Z"/>
        </g>
        <g class="st1">
          <path class="st6" d="M172.8,110.2h-16.8c-2.3,0-4.1-1.9-4.1-4.2s1.9-4.2,4.1-4.2h16.8c2.3,0,4.1,1.9,4.1,4.2s-1.9,4.2-4.1,4.2Z"/>
        </g>
        <g class="st4">
          <path class="st6" d="M155.9,129.1c-1.1,0-2.2-.4-2.9-1.2-.8-.8-1.2-1.8-1.2-2.9s0-.5,0-.8c0-.3.1-.5.2-.8.1-.2.2-.5.4-.7.1-.2.3-.4.5-.6.8-.8,1.8-1.2,2.9-1.2s2.2.4,2.9,1.2c.8.8,1.2,1.8,1.2,2.9s-.4,2.2-1.2,2.9c-.8.8-1.8,1.2-2.9,1.2Z"/>
        </g>
        <g class="st4">
          <path class="st6" d="M168.8,129.1c-1.1,0-2.2-.4-2.9-1.2-.8-.8-1.2-1.8-1.2-2.9s.4-2.2,1.2-2.9c.8-.8,1.8-1.2,2.9-1.2s2.2.4,2.9,1.2c.8.8,1.2,1.8,1.2,2.9s-.4,2.2-1.2,2.9c-.8.8-1.8,1.2-2.9,1.2h0Z"/>
        </g>
        <g class="st4">
          <path class="st6" d="M181.9,129.1c-1.1,0-2.2-.4-2.9-1.2s-1.2-1.8-1.2-2.9.4-2.2,1.2-2.9c.8-.8,1.8-1.2,2.9-1.2s2.2.4,2.9,1.2c.2.2.4.4.5.6.1.2.3.5.4.7.1.2.2.5.2.8,0,.3,0,.5,0,.8,0,1.1-.4,2.2-1.2,2.9s-1.8,1.2-2.9,1.2h0Z"/>
        </g>
        <path class="st2" d="M138.4,117.7V30.5c3.4-1,5.9-4.1,5.9-7.9s-3.7-8.2-8.2-8.2-8.2,3.7-8.2,8.2,2.5,6.9,5.9,7.9v87.2c-3.4,1-5.9,4.1-5.9,7.8s3.7,8.2,8.2,8.2,8.2-3.7,8.2-8.2-2.5-6.8-5.9-7.8h0ZM132.5,22.6c0-2,1.6-3.6,3.6-3.6s3.6,1.6,3.6,3.6-1.6,3.6-3.6,3.6-3.6-1.6-3.6-3.6ZM136.1,129.1c-2,0-3.6-1.6-3.6-3.6s1.6-3.6,3.6-3.6,3.6,1.6,3.6,3.6-1.6,3.6-3.6,3.6Z"/>
      </g>
      <g>
        <g>
          <path class="st5" d="M251.5,105.4h6.7c3.9,0,6.2,2.3,6.2,5.6h0c0,3.8-2.9,5.8-6.6,5.8h-2.7v4.9h-3.6v-16.3h0ZM257.9,113.6c1.8,0,2.8-1.1,2.8-2.5h0c0-1.7-1.1-2.5-2.9-2.5h-2.8v5h2.8Z"/>
          <path class="st5" d="M267.7,105.4h7.4c2.1,0,3.7.6,4.8,1.7.9.9,1.4,2.2,1.4,3.7h0c0,2.7-1.4,4.3-3.5,5.1l4,5.8h-4.2l-3.5-5.2h-2.8v5.2h-3.6v-16.3h0ZM274.9,113.3c1.7,0,2.7-.9,2.7-2.3h0c0-1.6-1.1-2.4-2.8-2.4h-3.6v4.7h3.6Z"/>
          <path class="st5" d="M284.5,113.6h0c0-4.7,3.7-8.5,8.7-8.5s8.6,3.7,8.6,8.4h0c0,4.7-3.7,8.5-8.7,8.5s-8.6-3.7-8.6-8.4ZM298.1,113.6h0c0-2.8-2.1-5.2-4.9-5.2s-4.9,2.3-4.9,5.1h0c0,2.8,2.1,5.2,4.9,5.2s4.9-2.3,4.9-5.1Z"/>
          <path class="st5" d="M305.7,105.4h12.4v3.3h-8.8v3.5h7.8v3.3h-7.8v6.3h-3.6s0-16.3,0-16.3Z"/>
          <path class="st5" d="M321.6,105.4h12.3v3.2h-8.7v3.3h7.7v3.2h-7.7v3.4h8.8v3.2h-12.4s0-16.3,0-16.3Z"/>
          <path class="st5" d="M336.7,119.3l2.1-2.5c1.5,1.2,3,2,4.9,2s2.3-.6,2.3-1.5h0c0-.9-.6-1.4-3.3-2.1-3.3-.8-5.4-1.7-5.4-5h0c0-3,2.4-5,5.7-5s4.4.7,6.1,2.1l-1.9,2.7c-1.4-1-2.9-1.6-4.2-1.6s-2.1.6-2.1,1.4h0c0,1.1.7,1.5,3.5,2.2,3.3.9,5.2,2.1,5.2,4.9h0c0,3.3-2.5,5.1-6,5.1s-5-.9-6.9-2.6h0Z"/>
          <path class="st5" d="M352.3,119.3l2.1-2.5c1.5,1.2,3,2,4.9,2s2.3-.6,2.3-1.5h0c0-.9-.6-1.4-3.3-2.1-3.3-.8-5.4-1.7-5.4-5h0c0-3,2.4-5,5.7-5s4.4.7,6.1,2.1l-1.9,2.7c-1.4-1-2.9-1.6-4.2-1.6s-2.1.6-2.1,1.4h0c0,1.1.7,1.5,3.5,2.2,3.3.9,5.2,2.1,5.2,4.9h0c0,3.3-2.5,5.1-6,5.1s-5-.9-6.9-2.6h0Z"/>
          <path class="st5" d="M369.2,105.4h3.6v16.3h-3.6s0-16.3,0-16.3Z"/>
          <path class="st5" d="M376.8,113.6h0c0-4.7,3.7-8.5,8.7-8.5s8.6,3.7,8.6,8.4h0c0,4.7-3.7,8.5-8.7,8.5s-8.6-3.7-8.6-8.4ZM390.3,113.6h0c0-2.8-2.1-5.2-4.9-5.2s-4.9,2.3-4.9,5.1h0c0,2.8,2.1,5.2,4.9,5.2s4.9-2.3,4.9-5.1Z"/>
          <path class="st5" d="M397.9,105.4h3.3l7.6,10v-10h3.5v16.3h-3l-7.9-10.4v10.4h-3.5v-16.3h0Z"/>
          <path class="st5" d="M422.6,105.3h3.3l7,16.4h-3.7l-1.5-3.7h-6.9l-1.5,3.7h-3.7l7-16.4h0ZM426.4,114.9l-2.2-5.3-2.2,5.3h4.3,0Z"/>
          <path class="st5" d="M436.1,105.4h3.6v13h8.1v3.3h-11.7s0-16.3,0-16.3Z"/>
          <path class="st5" d="M464.4,105.3h3.3l7,16.4h-3.7l-1.5-3.7h-6.9l-1.5,3.7h-3.7l7-16.4h0ZM468.1,114.9l-2.2-5.3-2.2,5.3h4.3Z"/>
          <path class="st5" d="M477.6,114.7v-9.3h3.6v9.2c0,2.7,1.3,4,3.5,4s3.5-1.3,3.5-3.9v-9.3h3.6v9.2c0,4.9-2.8,7.4-7.1,7.4s-7-2.4-7-7.2h0Z"/>
          <path class="st5" d="M496.1,105.4h6.4c5.1,0,8.7,3.5,8.7,8.1h0c0,4.6-3.5,8.2-8.7,8.2h-6.4v-16.3ZM499.7,108.7v9.8h2.8c2.9,0,4.9-2,4.9-4.9h0c0-2.9-2-5-4.9-5h-2.8Z"/>
          <path class="st5" d="M515.2,105.4h3.6v16.3h-3.6s0-16.3,0-16.3Z"/>
          <path class="st5" d="M522.7,113.6h0c0-4.7,3.7-8.5,8.7-8.5s8.6,3.7,8.6,8.4h0c0,4.7-3.7,8.5-8.7,8.5s-8.6-3.7-8.6-8.4ZM536.3,113.6h0c0-2.8-2.1-5.2-4.9-5.2s-4.9,2.3-4.9,5.1h0c0,2.8,2.1,5.2,4.9,5.2s4.9-2.3,4.9-5.1Z"/>
          <path class="st5" d="M555.4,108.7h-5v-3.3h13.5v3.3h-5v13h-3.6v-13h0Z"/>
          <path class="st5" d="M566.6,113.6h0c0-4.7,3.7-8.5,8.7-8.5s8.6,3.7,8.6,8.4h0c0,4.7-3.7,8.5-8.7,8.5s-8.6-3.7-8.6-8.4ZM580.2,113.6h0c0-2.8-2.1-5.2-4.9-5.2s-4.9,2.3-4.9,5.1h0c0,2.8,2.1,5.2,4.9,5.2s4.9-2.3,4.9-5.1Z"/>
          <path class="st5" d="M587.1,113.6h0c0-4.7,3.7-8.5,8.7-8.5s8.6,3.7,8.6,8.4h0c0,4.7-3.7,8.5-8.7,8.5s-8.6-3.7-8.6-8.4ZM600.6,113.6h0c0-2.8-2.1-5.2-4.9-5.2s-4.9,2.3-4.9,5.1h0c0,2.8,2.1,5.2,4.9,5.2s4.9-2.3,4.9-5.1Z"/>
          <path class="st5" d="M608.2,105.4h3.6v13h8.1v3.3h-11.7s0-16.3,0-16.3Z"/>
          <path class="st5" d="M622.2,119.3l2.1-2.5c1.5,1.2,3,2,4.9,2s2.3-.6,2.3-1.5h0c0-.9-.6-1.4-3.3-2.1-3.3-.8-5.4-1.7-5.4-5h0c0-3,2.4-5,5.7-5s4.4.7,6.1,2.1l-1.9,2.7c-1.4-1-2.9-1.6-4.2-1.6s-2.1.6-2.1,1.4h0c0,1.1.7,1.5,3.5,2.2,3.3.9,5.2,2.1,5.2,4.9h0c0,3.3-2.5,5.1-6,5.1s-5-.9-6.9-2.6h0Z"/>
          <path class="st5" d="M646,118h3.8v3.7h-3.8v-3.7Z"/>
          <path class="st5" d="M661.5,105.4h12.4v3.3h-8.8v3.5h7.8v3.3h-7.8v6.3h-3.6s0-16.3,0-16.3Z"/>
          <path class="st5" d="M683.1,105.3h3.3l7,16.4h-3.7l-1.5-3.7h-6.9l-1.5,3.7h-3.7l7-16.4h0ZM686.8,114.9l-2.2-5.3-2.2,5.3h4.3Z"/>
          <path class="st5" d="M695.4,119.3l2.1-2.5c1.5,1.2,3,2,4.9,2s2.3-.6,2.3-1.5h0c0-.9-.6-1.4-3.3-2.1-3.3-.8-5.4-1.7-5.4-5h0c0-3,2.4-5,5.7-5s4.4.7,6.1,2.1l-1.9,2.7c-1.4-1-2.9-1.6-4.2-1.6s-2.1.6-2.1,1.4h0c0,1.1.7,1.5,3.5,2.2,3.3.9,5.2,2.1,5.2,4.9h0c0,3.3-2.5,5.1-6,5.1s-5-.9-6.9-2.6h0Z"/>
          <path class="st5" d="M715.9,108.7h-5v-3.3h13.5v3.3h-5v13h-3.6v-13h0Z"/>
          <path class="st5" d="M735,118h3.8v3.7h-3.8v-3.7Z"/>
          <path class="st5" d="M750.5,105.4h12.4v3.3h-8.8v3.5h7.8v3.3h-7.8v6.3h-3.6s0-16.3,0-16.3Z"/>
          <path class="st5" d="M766.4,105.4h7.4c2.1,0,3.7.6,4.7,1.7.9.9,1.4,2.2,1.4,3.7h0c0,2.7-1.4,4.3-3.5,5.1l4,5.8h-4.2l-3.5-5.2h-2.8v5.2h-3.6v-16.3h0ZM773.6,113.3c1.7,0,2.7-.9,2.7-2.3h0c0-1.6-1.1-2.4-2.8-2.4h-3.6v4.7h3.6Z"/>
          <path class="st5" d="M783.9,105.4h12.3v3.2h-8.7v3.3h7.7v3.2h-7.7v3.4h8.8v3.2h-12.4v-16.3h0Z"/>
          <path class="st5" d="M800.2,105.4h12.3v3.2h-8.7v3.3h7.7v3.2h-7.7v3.4h8.8v3.2h-12.4v-16.3h0Z"/>
          <path class="st5" d="M823.6,118h3.8v3.7h-3.8v-3.7Z"/>
          <path class="st5" d="M838.4,113.6h0c0-4.7,3.7-8.5,8.7-8.5s8.6,3.7,8.6,8.4h0c0,4.7-3.7,8.5-8.7,8.5s-8.6-3.7-8.6-8.4ZM851.9,113.6h0c0-2.8-2.1-5.2-4.9-5.2s-4.9,2.3-4.9,5.1h0c0,2.8,2.1,5.2,4.9,5.2s4.9-2.3,4.9-5.1Z"/>
          <path class="st5" d="M859.5,105.4h3.3l7.6,10v-10h3.5v16.3h-3l-7.9-10.4v10.4h-3.5v-16.3h0Z"/>
          <path class="st5" d="M878.6,105.4h3.6v13h8.1v3.3h-11.7s0-16.3,0-16.3Z"/>
          <path class="st5" d="M893.8,105.4h3.6v16.3h-3.6s0-16.3,0-16.3Z"/>
          <path class="st5" d="M902.2,105.4h3.3l7.6,10v-10h3.5v16.3h-3l-7.9-10.4v10.4h-3.5v-16.3h0Z"/>
          <path class="st5" d="M921.2,105.4h12.3v3.2h-8.7v3.3h7.7v3.2h-7.7v3.4h8.8v3.2h-12.4v-16.3h0Z"/>
        </g>
        <g>
          <path d="M252.9,82.5V26.6h37.9v11.3h-25v12h20.6v10.6h-20.6v22h-12.9Z"/>
          <path d="M321.4,51.9c-3,0-5.8.5-8.3,1.5-2.5,1-4.3,2.4-5.4,4.3v24.8h-12.6v-40.9h11.5v7.9c1.5-2.8,3.3-5,5.6-6.5,2.3-1.6,4.6-2.4,7.1-2.4h1.3c.3,0,.5,0,.8,0v11.3Z"/>
          <path d="M346.2,83.3c-3.5,0-6.6-.6-9.4-1.7-2.7-1.1-5.1-2.6-7-4.6-1.9-1.9-3.4-4.1-4.4-6.7-1-2.5-1.5-5.2-1.5-7.9,0-3.9.9-7.5,2.6-10.7,1.8-3.2,4.3-5.8,7.6-7.8,3.3-2,7.3-2.9,12-2.9s8.7,1,12,2.9c3.3,1.9,5.8,4.5,7.5,7.7,1.7,3.2,2.6,6.7,2.6,10.3s0,1.4-.1,2.1c0,.7-.1,1.3-.2,1.8h-30.6c.1,1.8.6,3.3,1.5,4.5.9,1.2,2,2.1,3.4,2.8,1.4.6,2.8.9,4.3.9s3.7-.4,5.4-1.3c1.7-.9,2.8-2.1,3.3-3.5l10.7,3.1c-1.1,2.2-2.5,4-4.4,5.6s-4.1,2.9-6.7,3.9c-2.6,1-5.5,1.5-8.6,1.5ZM337.1,58.2h17.9c-.2-1.7-.7-3.1-1.5-4.4-.8-1.2-1.9-2.2-3.1-2.9-1.3-.7-2.7-1-4.4-1s-2.9.3-4.3,1c-1.3.7-2.4,1.6-3.2,2.8-.8,1.2-1.3,2.7-1.4,4.4Z"/>
          <path d="M393.7,83.3c-3.5,0-6.6-.6-9.4-1.7-2.7-1.1-5.1-2.6-7-4.6-1.9-1.9-3.4-4.1-4.4-6.7-1-2.5-1.5-5.2-1.5-7.9,0-3.9.9-7.5,2.6-10.7,1.8-3.2,4.3-5.8,7.6-7.8,3.3-2,7.3-2.9,12-2.9s8.7,1,12,2.9c3.3,1.9,5.8,4.5,7.5,7.7,1.7,3.2,2.6,6.7,2.6,10.3s0,1.4-.1,2.1c0,.7-.1,1.3-.2,1.8h-30.6c.1,1.8.6,3.3,1.5,4.5.9,1.2,2,2.1,3.4,2.8,1.4.6,2.8.9,4.3.9s3.7-.4,5.4-1.3c1.7-.9,2.8-2.1,3.3-3.5l10.7,3.1c-1.1,2.2-2.5,4-4.4,5.6s-4.1,2.9-6.7,3.9c-2.6,1-5.5,1.5-8.6,1.5ZM384.7,58.2h17.9c-.2-1.7-.7-3.1-1.5-4.4-.8-1.2-1.9-2.2-3.1-2.9-1.3-.7-2.7-1-4.4-1s-2.9.3-4.3,1c-1.3.7-2.4,1.6-3.2,2.8-.8,1.2-1.3,2.7-1.4,4.4Z"/>
          <path d="M435.5,26.6h13.9l19.4,55.9h-13.2l-3.8-12.5h-18.5l-3.8,12.5h-13.2l19.3-55.9ZM449.1,61.1l-6.5-21.6-6.6,21.6h13.1Z"/>
          <path d="M472,67.9v-26.2h12.6v23.4c0,2.4.5,4.3,1.5,5.6,1,1.3,2.5,2,4.3,2s2.3-.2,3.3-.6c1.1-.4,2.1-1,3.1-1.9,1-.9,1.9-2,2.7-3.4v-25.2h12.6v26.9c0,1.2.2,2.1.6,2.6.4.5,1.1.8,2.1.9v10.5c-1.2.3-2.2.4-3,.5-.9,0-1.6,0-2.3,0-2.2,0-4-.4-5.3-1.2-1.3-.9-2.1-2.2-2.4-3.9l-.2-2.5c-1.9,2.7-4.2,4.7-7,6s-5.9,1.9-9.4,1.9-7.4-1.3-9.6-3.9c-2.2-2.6-3.3-6.5-3.3-11.5Z"/>
          <path d="M519.5,62.1c0-3.9.8-7.5,2.4-10.7,1.6-3.2,3.7-5.7,6.5-7.6,2.7-1.9,5.9-2.8,9.4-2.8s5.5.7,7.9,2c2.4,1.4,4.1,3.2,5.4,5.4v-23.5h12.6v43.5c0,1.3.2,2.2.6,2.7.4.5,1.1.8,2.2.9v10.5c-2.3.4-4.1.6-5.4.6-2.2,0-4-.5-5.3-1.4-1.3-.9-2.1-2.3-2.4-3.9l-.2-2.1c-1.5,2.6-3.5,4.5-6.1,5.7-2.5,1.3-5.2,1.9-8,1.9s-5.4-.5-7.8-1.6c-2.4-1.1-4.5-2.6-6.2-4.5-1.8-1.9-3.1-4.2-4.1-6.7-.9-2.6-1.4-5.4-1.4-8.4ZM551.1,67v-8.4c-.5-1.4-1.3-2.6-2.2-3.6-1-1-2.1-1.9-3.3-2.5-1.2-.6-2.5-1-3.7-1s-2.7.3-3.9.9c-1.2.6-2.1,1.4-3,2.4-.8,1-1.4,2.1-1.9,3.4-.4,1.3-.7,2.7-.7,4.1s.2,2.8.7,4.1c.5,1.2,1.2,2.3,2,3.2.9.9,1.9,1.6,3.2,2.2,1.2.5,2.6.8,4,.8s1.8-.1,2.6-.4c.8-.3,1.6-.6,2.4-1.2.8-.5,1.5-1.1,2.1-1.8.6-.7,1.2-1.4,1.6-2.3Z"/>
          <path d="M573.4,36.5v-11.5h12.6v11.5h-12.6ZM573.4,82.5v-41.3h12.6v41.3h-12.6Z"/>
          <path d="M614.3,83.3c-3.6,0-6.7-.6-9.4-1.7-2.7-1.1-5-2.7-6.9-4.7-1.9-2-3.4-4.3-4.3-6.8-1-2.5-1.5-5.2-1.5-8s.5-5.5,1.5-8.1,2.4-4.8,4.3-6.8c1.9-2,4.2-3.5,6.9-4.6s5.9-1.7,9.4-1.7,6.6.6,9.4,1.7c2.7,1.1,5,2.7,6.9,4.6s3.3,4.2,4.3,6.8,1.5,5.2,1.5,8.1-.5,5.5-1.5,8c-1,2.5-2.4,4.8-4.3,6.8-1.9,2-4.2,3.6-7,4.7-2.7,1.1-5.9,1.7-9.4,1.7ZM605.1,62.1c0,2,.4,3.9,1.2,5.5.8,1.6,1.9,2.8,3.3,3.7,1.4.9,2.9,1.3,4.7,1.3s3.3-.4,4.7-1.3c1.4-.9,2.5-2.1,3.3-3.7.8-1.6,1.2-3.4,1.2-5.5s-.4-3.9-1.2-5.5c-.8-1.6-1.9-2.8-3.3-3.7-1.4-.9-3-1.4-4.7-1.4s-3.3.4-4.6,1.3c-1.4.9-2.5,2.1-3.3,3.7-.8,1.6-1.3,3.4-1.3,5.5Z"/>
          <path class="st3" d="M679,37.9h-17v44.6h-12.9v-44.6h-17.1v-11.3h47v11.3Z"/>
          <path class="st3" d="M708,51.9c-3,0-5.8.5-8.3,1.5-2.5,1-4.3,2.4-5.4,4.3v24.8h-12.6v-40.9h11.5v7.9c1.5-2.8,3.3-5,5.6-6.5,2.3-1.6,4.6-2.4,7.1-2.4h1.3c.3,0,.5,0,.8,0v11.3Z"/>
          <path class="st3" d="M713.3,36.5v-11.5h12.6v11.5h-12.6ZM713.3,82.5v-41.3h12.6v41.3h-12.6Z"/>
          <path class="st3" d="M799.9,82.5h-12.6v-22.8c0-2.6-.5-4.6-1.5-5.8-1-1.2-2.3-1.9-4-1.9s-3.3.7-4.9,2c-1.6,1.3-2.8,3.1-3.5,5.3v23.2h-12.6v-22.8c0-2.7-.5-4.6-1.5-5.8-1-1.2-2.3-1.8-3.9-1.8s-3.3.6-4.9,1.9c-1.6,1.3-2.8,3-3.5,5.1v23.4h-12.6v-40.9h11.3v7c1.5-2.5,3.6-4.4,6.2-5.7,2.6-1.3,5.7-1.9,9.2-1.9s6,.8,7.8,2.3c1.8,1.6,3,3.4,3.5,5.5,1.6-2.5,3.7-4.4,6.3-5.8s5.5-2.1,8.8-2.1,4.7.5,6.3,1.4,2.8,2.2,3.7,3.7c.9,1.6,1.5,3.2,1.8,5,.3,1.8.5,3.5.5,5.2v26.1Z"/>
          <path class="st2" d="M807,82.5v-9.3h7.3v9.3h-7.3Z"/>
          <path class="st2" d="M834.4,83.1c-2.5,0-4.8-.4-6.8-1.2-2-.8-3.6-1.9-5-3.4-1.4-1.4-2.4-3-3.2-4.9-.7-1.8-1.1-3.8-1.1-5.8s.6-5.2,1.9-7.5c1.3-2.3,3.1-4.1,5.5-5.5,2.4-1.4,5.2-2.1,8.6-2.1s6.3.7,8.7,2.2c2.4,1.4,4.1,3.3,5.3,5.7l-8.9,2.7c-.6-.9-1.3-1.6-2.2-2.1-.9-.5-1.9-.8-3-.8s-2.4.3-3.4,1c-1,.6-1.8,1.5-2.4,2.7-.6,1.1-.9,2.4-.9,4s.3,2.8.9,4c.6,1.2,1.4,2.1,2.4,2.7,1,.6,2.1.9,3.3.9s1.5-.1,2.2-.4c.7-.2,1.3-.6,1.8-1.1.5-.5,1-.9,1.3-1.5l8.8,2.7c-.8,1.6-1.8,2.9-3.1,4.1-1.3,1.2-2.9,2.1-4.7,2.8-1.8.7-3.9,1.1-6.2,1.1Z"/>
          <path class="st2" d="M866.5,83.1c-2.6,0-4.8-.4-6.8-1.2-1.9-.8-3.6-1.9-5-3.4-1.4-1.4-2.4-3.1-3.1-4.9-.7-1.8-1.1-3.8-1.1-5.8s.4-4,1.1-5.8c.7-1.8,1.8-3.5,3.1-4.9s3-2.5,5-3.3c2-.8,4.2-1.2,6.8-1.2s4.8.4,6.8,1.2c2,.8,3.6,1.9,5,3.3s2.4,3,3.1,4.9c.7,1.8,1.1,3.8,1.1,5.8s-.4,3.9-1.1,5.8c-.7,1.8-1.7,3.5-3.1,4.9-1.4,1.4-3.1,2.6-5,3.4-2,.8-4.2,1.2-6.8,1.2ZM859.8,67.8c0,1.5.3,2.8.9,3.9.6,1.1,1.4,2,2.4,2.7,1,.6,2.1,1,3.4,1s2.4-.3,3.4-1c1-.6,1.8-1.5,2.4-2.7s.9-2.4.9-4-.3-2.8-.9-4c-.6-1.1-1.4-2-2.4-2.7-1-.7-2.1-1-3.4-1s-2.4.3-3.3,1c-1,.6-1.8,1.5-2.4,2.7-.6,1.1-.9,2.5-.9,4Z"/>
          <path class="st2" d="M934,82.5h-9.1v-16.4c0-1.9-.4-3.3-1.1-4.2-.7-.9-1.7-1.3-2.9-1.3s-2.3.5-3.5,1.4-2,2.2-2.5,3.8v16.7h-9.1v-16.4c0-1.9-.4-3.3-1.1-4.2s-1.6-1.3-2.8-1.3-2.3.5-3.5,1.4c-1.2.9-2,2.2-2.6,3.7v16.9h-9.1v-29.5h8.2v5c1.1-1.8,2.6-3.2,4.5-4.1,1.9-.9,4.1-1.4,6.6-1.4s4.3.6,5.6,1.7c1.3,1.1,2.1,2.4,2.5,4,1.1-1.8,2.6-3.2,4.5-4.2s4-1.5,6.3-1.5,3.4.3,4.6,1c1.2.7,2,1.6,2.7,2.7s1.1,2.3,1.3,3.6.3,2.5.3,3.8v18.8Z"/>
        </g>
      </g>
    </g>
  </g>
</svg>