<?xml version="1.0" encoding="UTF-8"?>
<svg id="Layer_2" data-name="Layer 2" xmlns="http://www.w3.org/2000/svg" viewBox="0 0 150 150">
  <defs>
    <style>
      .cls-1 {
        fill: none;
      }

      .cls-2 {
        fill: #53aaf9;
      }
    </style>
  </defs>
  <g id="Layer_1-2" data-name="Layer 1">
    <g>
      <rect class="cls-1" width="150" height="150"/>
      <g>
        <polygon points="9.78 88.27 2.96 88.27 0 84.93 0 65.97 2.96 62.64 9.78 62.64 12.74 65.97 12.74 84.93 9.78 88.27"/>
        <polygon points="49 102.2 42.18 102.2 39.22 98.87 39.22 52.04 42.18 48.71 49 48.71 51.95 52.04 51.95 98.87 49 102.2"/>
        <polygon class="cls-2" points="68.61 132.94 61.79 132.94 58.83 129.61 58.83 20.39 61.79 17.06 68.61 17.06 71.56 20.39 71.56 129.61 68.61 132.94"/>
        <polygon points="88.22 119.56 81.4 119.56 78.44 116.23 78.44 32.86 81.4 29.53 88.22 29.53 91.17 32.86 91.17 116.23 88.22 119.56"/>
        <polygon points="107.82 103.87 101 103.87 98.05 100.54 98.05 50.37 101 47.04 107.82 47.04 110.78 50.37 110.78 100.54 107.82 103.87"/>
        <polygon points="127.43 93.71 120.61 93.71 117.66 90.38 117.66 60.53 120.61 57.2 127.43 57.2 130.39 60.53 130.39 90.38 127.43 93.71"/>
        <polygon points="147.04 88.27 140.22 88.27 137.26 84.93 137.26 65.97 140.22 62.64 147.04 62.64 150 65.97 150 84.93 147.04 88.27"/>
        <polygon points="29.39 114.8 22.57 114.8 19.61 111.47 19.61 39.44 22.57 36.11 29.39 36.11 32.34 39.44 32.34 111.47 29.39 114.8"/>
      </g>
    </g>
  </g>
</svg>