<?xml version="1.0" encoding="UTF-8"?>
<svg id="Layer_2" data-name="Layer 2" xmlns="http://www.w3.org/2000/svg" viewBox="0 0 935.53 144.71">
  <defs>
    <style>
      .cls-1 {
        opacity: .6;
      }

      .cls-2 {
        opacity: .3;
      }

      .cls-3 {
        fill: #ffc757;
      }

      .cls-4 {
        opacity: .4;
      }

      .cls-5 {
        fill: #5b6cef;
      }

      .cls-6 {
        opacity: .8;
      }

      .cls-7 {
        fill: #969696;
      }

      .cls-8 {
        fill: #959595;
      }

      .cls-9 {
        fill: #abb2ca;
      }
    </style>
  </defs>
  <g id="Layer_1-2" data-name="Layer 1">
    <g>
      <g>
        <rect class="cls-5" x="63.16" y="0" width="16.17" height="144.71" rx="8.09" ry="8.09"/>
        <rect class="cls-5" x="37.83" y="18.3" width="16.17" height="103.21" rx="8.09" ry="8.09"/>
        <rect class="cls-5" x="88.48" y="34.32" width="16.17" height="73.98" rx="8.09" ry="8.09"/>
        <rect class="cls-5" x="0" y="55.59" width="10.28" height="28.58" rx="5.14" ry="5.14"/>
        <rect class="cls-5" x="17.4" y="37.41" width="12.86" height="65.62" rx="6.43" ry="6.43"/>
        <rect class="cls-5" x="112.69" y="59.97" width="14.35" height="22.56" rx="7.17" ry="7.17"/>
        <path class="cls-3" d="M187.37,75.4h-31.42c-2.29,0-4.15-1.86-4.15-4.15s1.86-4.15,4.15-4.15h31.42c2.29,0,4.15,1.86,4.15,4.15s-1.86,4.15-4.15,4.15Z"/>
        <g class="cls-6">
          <path class="cls-9" d="M211.6,75.46h-10.14c-2.29,0-4.15-1.86-4.15-4.15s1.86-4.15,4.15-4.15h10.14c2.29,0,4.15,1.86,4.15,4.15s-1.86,4.15-4.15,4.15Z"/>
        </g>
        <path class="cls-9" d="M200.25,57.51h-44.3c-2.29,0-4.15-1.86-4.15-4.15s1.86-4.15,4.15-4.15h44.3c2.29,0,4.15,1.86,4.15,4.15s-1.86,4.15-4.15,4.15Z"/>
        <path class="cls-9" d="M187.37,39.62h-31.42c-2.29,0-4.15-1.86-4.15-4.15s1.86-4.15,4.15-4.15h31.42c2.29,0,4.15,1.86,4.15,4.15s-1.86,4.15-4.15,4.15Z"/>
        <g class="cls-1">
          <path class="cls-9" d="M200.25,92.79h-44.3c-2.29,0-4.15-1.86-4.15-4.15s1.86-4.15,4.15-4.15h44.3c2.29,0,4.15,1.86,4.15,4.15s-1.86,4.15-4.15,4.15Z"/>
        </g>
        <g class="cls-4">
          <path class="cls-9" d="M172.78,110.17h-16.83c-2.29,0-4.15-1.86-4.15-4.15s1.86-4.15,4.15-4.15h16.83c2.29,0,4.15,1.86,4.15,4.15s-1.86,4.15-4.15,4.15Z"/>
        </g>
        <g class="cls-2">
          <path class="cls-9" d="M155.95,129.07c-1.1,0-2.17-.44-2.93-1.22-.77-.77-1.22-1.83-1.22-2.93,0-.27.03-.54.08-.81.05-.26.13-.53.23-.77.11-.25.23-.49.39-.72.15-.22.32-.43.52-.63.77-.78,1.83-1.22,2.93-1.22s2.16.44,2.93,1.22c.77.77,1.22,1.84,1.22,2.93s-.44,2.17-1.22,2.93c-.77.77-1.84,1.22-2.93,1.22Z"/>
        </g>
        <g class="cls-2">
          <path class="cls-9" d="M168.82,129.07c-1.09,0-2.16-.44-2.93-1.22-.77-.77-1.22-1.84-1.22-2.93s.44-2.16,1.22-2.93c.77-.78,1.84-1.22,2.93-1.22s2.17.44,2.94,1.22c.77.77,1.21,1.84,1.21,2.93s-.44,2.17-1.22,2.93c-.77.77-1.83,1.22-2.93,1.22Z"/>
        </g>
        <g class="cls-2">
          <path class="cls-9" d="M181.94,129.07c-1.1,0-2.17-.44-2.94-1.22s-1.21-1.83-1.21-2.93.44-2.17,1.21-2.93c.77-.78,1.84-1.22,2.94-1.22s2.16.44,2.93,1.22c.19.19.37.41.52.63.15.23.28.47.38.72.11.25.18.52.24.77.06.27.08.54.08.81,0,1.09-.44,2.16-1.22,2.93s-1.84,1.22-2.93,1.22Z"/>
        </g>
        <path class="cls-3" d="M138.39,117.69V30.5c3.39-1,5.88-4.14,5.88-7.85,0-4.51-3.67-8.18-8.18-8.18s-8.18,3.67-8.18,8.18c0,3.71,2.49,6.85,5.88,7.85v87.19c-3.39,1-5.88,4.14-5.88,7.85,0,4.51,3.67,8.18,8.18,8.18s8.18-3.67,8.18-8.18c0-3.71-2.49-6.85-5.88-7.85ZM132.51,22.65c0-1.97,1.6-3.57,3.57-3.57s3.57,1.6,3.57,3.57-1.6,3.57-3.57,3.57-3.57-1.6-3.57-3.57ZM136.08,129.11c-1.97,0-3.57-1.6-3.57-3.57s1.6-3.57,3.57-3.57,3.57,1.6,3.57,3.57-1.6,3.57-3.57,3.57Z"/>
      </g>
      <g>
        <g>
          <path d="M319.65,79.28v-29.66h-5.2v-7.75h5.2v-2.33c0-3.26.54-6.09,1.62-8.47,1.08-2.38,2.6-4.23,4.56-5.53,1.96-1.3,4.27-1.96,6.93-1.96,1.66,0,3.3.2,4.93.6,1.63.4,3.22.98,4.78,1.73l-1.96,7.6c-.75-.45-1.64-.79-2.67-1.02-1.03-.23-1.97-.34-2.82-.34-1.76,0-3.07.59-3.95,1.77-.88,1.18-1.32,2.92-1.32,5.23v2.71h9.64v7.75h-9.64v29.66h-10.09Z"/>
          <path d="M369.41,48.56c-3.11.05-5.87.64-8.28,1.77-2.41,1.13-4.17,2.8-5.27,5.01v23.94h-10.01v-39.07h9.26v8.06c1.4-2.71,3.2-4.84,5.38-6.4,2.18-1.56,4.48-2.41,6.89-2.56.5.05.9.06,1.21.04.3-.02.58.01.83.11v9.11Z"/>
          <path d="M394.03,80.04c-3.16,0-6.02-.53-8.58-1.6-2.56-1.07-4.74-2.53-6.55-4.39-1.81-1.86-3.19-3.98-4.14-6.37-.95-2.38-1.43-4.94-1.43-7.67,0-3.67.84-7.06,2.52-10.16,1.68-3.1,4.07-5.59,7.15-7.45,3.09-1.86,6.79-2.79,11.1-2.79s7.93.93,10.99,2.8c3.06,1.86,5.42,4.31,7.08,7.35s2.48,6.34,2.48,9.92c0,.65-.03,1.26-.08,1.83-.05.57-.1,1.06-.15,1.45h-30.42c.15,2.06.72,3.82,1.69,5.26s2.23,2.56,3.76,3.35c1.53.79,3.15,1.18,4.86,1.18,2.06,0,3.98-.49,5.76-1.47,1.78-.98,3-2.3,3.65-3.95l8.58,2.41c-.9,2.01-2.23,3.79-3.99,5.35-1.76,1.56-3.84,2.77-6.25,3.65-2.41.88-5.09,1.32-8.06,1.32ZM383.72,56.62h20.63c-.2-1.96-.77-3.67-1.69-5.11-.93-1.45-2.15-2.57-3.65-3.38-1.51-.81-3.19-1.21-5.04-1.21s-3.45.4-4.93,1.21c-1.48.81-2.69,1.94-3.61,3.38-.93,1.45-1.49,3.15-1.69,5.11Z"/>
          <path d="M439.88,80.04c-3.16,0-6.02-.53-8.58-1.6-2.56-1.07-4.74-2.53-6.55-4.39-1.81-1.86-3.19-3.98-4.14-6.37-.95-2.38-1.43-4.94-1.43-7.67,0-3.67.84-7.06,2.52-10.16,1.68-3.1,4.07-5.59,7.15-7.45,3.09-1.86,6.79-2.79,11.1-2.79s7.93.93,10.99,2.8c3.06,1.86,5.42,4.31,7.08,7.35s2.48,6.34,2.48,9.92c0,.65-.03,1.26-.08,1.83-.05.57-.1,1.06-.15,1.45h-30.42c.15,2.06.72,3.82,1.69,5.26s2.23,2.56,3.76,3.35c1.53.79,3.15,1.18,4.86,1.18,2.06,0,3.98-.49,5.76-1.47,1.78-.98,3-2.3,3.65-3.95l8.58,2.41c-.9,2.01-2.23,3.79-3.99,5.35-1.76,1.56-3.84,2.77-6.25,3.65-2.41.88-5.09,1.32-8.06,1.32ZM429.57,56.62h20.63c-.2-1.96-.77-3.67-1.69-5.11-.93-1.45-2.15-2.57-3.65-3.38-1.51-.81-3.19-1.21-5.04-1.21s-3.45.4-4.93,1.21c-1.48.81-2.69,1.94-3.61,3.38-.93,1.45-1.49,3.15-1.69,5.11Z"/>
          <path d="M464.73,67.76c0-2.53.72-4.74,2.15-6.62,1.43-1.88,3.41-3.36,5.95-4.43,2.53-1.07,5.48-1.6,8.85-1.6,1.66,0,3.34.13,5.04.38,1.71.25,3.19.65,4.44,1.2v-2.17c0-2.41-.73-4.29-2.18-5.62-1.46-1.33-3.64-2-6.55-2-2.21,0-4.29.38-6.25,1.13-1.96.75-4.02,1.83-6.17,3.24l-3.16-6.55c2.56-1.76,5.21-3.05,7.94-3.88,2.73-.83,5.61-1.24,8.62-1.24,5.62,0,10,1.37,13.14,4.12,3.14,2.75,4.71,6.72,4.71,11.91v12.4c0,1.04.19,1.78.56,2.23.38.45.99.72,1.84.82v8.21c-.9.15-1.72.28-2.45.38-.73.1-1.34.12-1.84.08-2.01,0-3.53-.44-4.55-1.32-1.03-.88-1.64-1.97-1.84-3.28l-.23-2.03c-1.76,2.21-3.92,3.92-6.47,5.12-2.56,1.2-5.17,1.81-7.83,1.81s-4.96-.55-7.04-1.64c-2.08-1.09-3.71-2.57-4.89-4.43-1.18-1.86-1.77-3.93-1.77-6.21ZM489.27,69.65c.55-.49,1-1.05,1.35-1.69.35-.64.53-1.17.53-1.62v-3.89c-1.21-.49-2.51-.87-3.92-1.14-1.41-.27-2.74-.4-3.99-.4-2.61,0-4.76.55-6.44,1.65s-2.52,2.56-2.52,4.37c0,.98.27,1.92.83,2.83.55.91,1.34,1.63,2.37,2.17,1.03.54,2.3.81,3.8.81s2.99-.29,4.44-.88c1.46-.59,2.63-1.32,3.54-2.2Z"/>
          <path d="M510.95,64.67v-24.46h10.16v22.24c0,2.98.55,5.22,1.66,6.73,1.1,1.51,2.74,2.27,4.89,2.27,1.3,0,2.6-.26,3.88-.77,1.28-.52,2.46-1.29,3.54-2.32s2-2.33,2.75-3.91v-24.24h10.16v27.82c0,1.04.18,1.78.53,2.23.35.45.95.72,1.81.82v8.21c-1,.15-1.84.26-2.52.34-.68.08-1.29.11-1.84.11-1.76,0-3.2-.42-4.33-1.27-1.13-.85-1.82-1.96-2.07-3.36l-.23-3.13c-1.76,2.64-4,4.64-6.74,6-2.74,1.37-5.79,2.05-9.15,2.05-4.07,0-7.17-1.3-9.3-3.92-2.13-2.61-3.2-6.43-3.2-11.45Z"/>
          <path d="M556.28,59.78c0-3.72.75-7.12,2.26-10.2s3.59-5.51,6.25-7.3c2.66-1.79,5.7-2.68,9.11-2.68,2.86,0,5.47.72,7.83,2.15,2.36,1.43,4.17,3.25,5.42,5.46v-22.89h10.16v43.67c0,1.05.17,1.81.53,2.26.35.45.95.73,1.81.83v8.21c-1.81.35-3.24.5-4.29.45-1.81.05-3.3-.38-4.48-1.28-1.18-.9-1.84-2.08-2-3.54l-.15-2.48c-1.46,2.46-3.43,4.34-5.91,5.65s-5.08,1.96-7.79,1.96-5.21-.51-7.49-1.53c-2.29-1.02-4.27-2.46-5.95-4.32-1.68-1.86-2.99-4.02-3.92-6.48-.93-2.46-1.39-5.1-1.39-7.93ZM587.22,64.88v-9.16c-.5-1.43-1.31-2.71-2.41-3.84-1.1-1.13-2.33-2.03-3.69-2.7-1.35-.66-2.71-1-4.07-1-1.56,0-2.96.32-4.22.96-1.26.64-2.35,1.5-3.28,2.59-.93,1.08-1.63,2.33-2.11,3.73-.48,1.4-.71,2.89-.71,4.47s.28,3.14.83,4.54c.55,1.4,1.3,2.63,2.26,3.69.95,1.06,2.11,1.87,3.46,2.44,1.36.57,2.81.85,4.37.85,1,0,1.98-.16,2.94-.48.95-.32,1.87-.78,2.75-1.37.88-.59,1.67-1.28,2.37-2.07.7-.79,1.21-1.67,1.51-2.66Z"/>
          <path d="M608,34.26v-9.94h10.01v9.94h-10.01ZM608,79.28v-39.45h10.01v39.45h-10.01Z"/>
          <path d="M646.17,80.04c-3.21,0-6.09-.55-8.62-1.64-2.54-1.09-4.71-2.58-6.51-4.47-1.81-1.89-3.18-4.03-4.1-6.44-.93-2.41-1.39-4.95-1.39-7.63s.46-5.39,1.39-7.82c.93-2.43,2.28-4.58,4.07-6.44,1.78-1.86,3.95-3.33,6.51-4.39,2.56-1.07,5.42-1.6,8.58-1.6s6.16.53,8.7,1.6c2.53,1.07,4.71,2.53,6.51,4.39,1.81,1.86,3.19,4.01,4.14,6.44.95,2.43,1.43,5.04,1.43,7.82s-.48,5.22-1.43,7.63c-.95,2.41-2.33,4.56-4.14,6.44-1.81,1.89-3.98,3.38-6.51,4.47-2.54,1.09-5.41,1.64-8.62,1.64ZM635.86,59.86c0,2.22.45,4.21,1.36,5.98.9,1.77,2.15,3.15,3.73,4.14,1.58.98,3.32,1.48,5.23,1.48s3.64-.5,5.2-1.51c1.55-1.01,2.8-2.39,3.73-4.13.93-1.75,1.39-3.75,1.39-6.02s-.46-4.2-1.39-5.95c-.93-1.75-2.17-3.13-3.73-4.14-1.56-1.01-3.31-1.51-5.27-1.51s-3.64.5-5.2,1.51-2.79,2.39-3.69,4.14c-.9,1.75-1.36,3.75-1.36,6.02Z"/>
          <path class="cls-5" d="M697.97,77.32c-.9.4-1.95.82-3.12,1.24-1.18.43-2.46.78-3.84,1.05-1.38.28-2.77.41-4.18.41-1.91,0-3.64-.32-5.2-.97-1.56-.65-2.8-1.68-3.73-3.1-.93-1.42-1.39-3.27-1.39-5.56v-22.53h-5.12v-7.68h5.12v-12.8h10.16v12.8h8.28v7.68h-8.28v19.1c.05,1.34.43,2.32,1.13,2.94.7.62,1.61.93,2.71.93,1,0,2.01-.19,3.01-.56,1-.38,1.83-.72,2.48-1.02l1.96,8.06Z"/>
          <path class="cls-5" d="M727.56,48.56c-3.11.05-5.87.64-8.28,1.77-2.41,1.13-4.17,2.8-5.27,5.01v23.94h-10.01v-39.07h9.26v8.06c1.4-2.71,3.2-4.84,5.38-6.4,2.18-1.56,4.48-2.41,6.89-2.56.5.05.9.06,1.21.04.3-.02.58.01.83.11v9.11Z"/>
          <path class="cls-5" d="M733.88,34.26v-9.94h10.01v9.94h-10.01ZM733.88,79.28v-39.45h10.01v39.45h-10.01Z"/>
          <path class="cls-5" d="M815.12,79.28h-10.09v-21.81c0-3.12-.54-5.39-1.62-6.83-1.08-1.43-2.57-2.15-4.48-2.15-2.01,0-3.89.76-5.65,2.26-1.76,1.51-3.01,3.45-3.76,5.82v22.71h-10.16v-21.81c0-3.12-.53-5.39-1.58-6.83-1.05-1.43-2.54-2.15-4.44-2.15s-3.84.74-5.65,2.21c-1.81,1.47-3.09,3.41-3.84,5.81v22.78h-10.01v-39.07h9.11v7.29c1.51-2.53,3.53-4.48,6.06-5.84,2.53-1.36,5.41-2.05,8.62-2.05s5.81.79,7.64,2.38c1.83,1.59,3,3.55,3.5,5.88,1.61-2.68,3.65-4.73,6.14-6.14,2.49-1.41,5.31-2.12,8.47-2.12,2.41,0,4.38.44,5.91,1.3,1.53.87,2.72,2.04,3.58,3.5.85,1.46,1.44,3.11,1.77,4.95.33,1.84.49,3.67.49,5.51v24.42Z"/>
          <path class="cls-3" d="M822.95,79.28v-7.23h5.57v7.23h-5.57Z"/>
          <path class="cls-3" d="M847.19,79.78c-2.18,0-4.11-.36-5.8-1.07-1.69-.71-3.14-1.7-4.34-2.98-1.21-1.27-2.12-2.72-2.76-4.34-.64-1.62-.95-3.33-.95-5.11,0-2.42.55-4.65,1.66-6.7,1.1-2.05,2.69-3.69,4.77-4.91,2.07-1.22,4.53-1.84,7.38-1.84s5.29.62,7.33,1.86c2.04,1.24,3.55,2.86,4.52,4.87l-6.52,2.01c-.57-.97-1.32-1.71-2.26-2.23-.94-.52-1.99-.78-3.16-.78-1.24,0-2.38.32-3.41.96-1.04.64-1.87,1.53-2.48,2.68-.62,1.15-.93,2.51-.93,4.09s.31,2.86.93,4.04c.62,1.18,1.45,2.1,2.48,2.76,1.04.66,2.19.98,3.46.98.84,0,1.61-.13,2.31-.4.7-.27,1.35-.64,1.93-1.13.58-.48,1.01-1.01,1.28-1.58l6.53,2.01c-.6,1.31-1.48,2.48-2.64,3.51s-2.51,1.85-4.07,2.43-3.3.88-5.25.88Z"/>
          <path class="cls-3" d="M875.9,79.78c-2.14,0-4.06-.36-5.75-1.09-1.69-.73-3.14-1.72-4.34-2.98-1.21-1.26-2.12-2.69-2.74-4.29-.62-1.6-.93-3.3-.93-5.09s.31-3.59.93-5.21c.62-1.62,1.52-3.05,2.71-4.29,1.19-1.24,2.63-2.22,4.34-2.93,1.71-.71,3.61-1.07,5.72-1.07s4.11.36,5.8,1.07c1.69.71,3.14,1.69,4.34,2.93,1.21,1.24,2.12,2.67,2.76,4.29.63,1.62.95,3.36.95,5.21s-.32,3.48-.95,5.09c-.64,1.61-1.56,3.04-2.76,4.29-1.2,1.26-2.65,2.25-4.34,2.98-1.69.73-3.61,1.09-5.75,1.09ZM869.03,66.33c0,1.48.3,2.81.9,3.99.6,1.18,1.43,2.1,2.48,2.76,1.05.66,2.22.98,3.49.98s2.43-.34,3.46-1.01c1.04-.67,1.86-1.59,2.48-2.76.62-1.17.93-2.5.93-4.01s-.31-2.8-.93-3.96c-.62-1.17-1.45-2.08-2.48-2.76-1.04-.67-2.21-1.01-3.51-1.01s-2.43.34-3.46,1.01c-1.04.67-1.86,1.59-2.46,2.76-.6,1.17-.9,2.5-.9,4.01Z"/>
          <path class="cls-3" d="M935.53,79.28h-6.73v-14.54c0-2.08-.36-3.59-1.08-4.55-.72-.96-1.71-1.43-2.99-1.43-1.34,0-2.59.5-3.76,1.51-1.17,1.01-2.01,2.3-2.51,3.88v15.14h-6.78v-14.54c0-2.08-.35-3.59-1.05-4.55-.7-.96-1.69-1.43-2.96-1.43s-2.56.49-3.76,1.47c-1.2.98-2.06,2.27-2.56,3.87v15.19h-6.68v-26.05h6.07v4.86c1-1.69,2.35-2.99,4.04-3.9,1.69-.91,3.6-1.37,5.75-1.37s3.87.53,5.09,1.59c1.22,1.06,2,2.37,2.33,3.92,1.07-1.79,2.43-3.15,4.09-4.09s3.54-1.42,5.65-1.42c1.61,0,2.92.29,3.94.87s1.82,1.36,2.38,2.33c.57.98.96,2.08,1.18,3.3.22,1.22.33,2.45.33,3.67v16.28Z"/>
        </g>
        <g>
          <path class="cls-8" d="M316.55,106.12h6.04c3.52,0,5.66,2.09,5.66,5.11v.04c0,3.42-2.66,5.19-5.97,5.19h-2.47v4.43h-3.25v-14.77ZM322.38,113.57c1.62,0,2.57-.97,2.57-2.24v-.04c0-1.46-1.01-2.24-2.64-2.24h-2.51v4.52h2.58Z"/>
          <path class="cls-8" d="M331.26,106.12h6.75c1.88,0,3.33.53,4.31,1.5.82.82,1.27,1.98,1.27,3.38v.04c0,2.38-1.29,3.88-3.17,4.58l3.61,5.28h-3.8l-3.17-4.73h-2.55v4.73h-3.25v-14.77ZM337.8,113.29c1.58,0,2.49-.84,2.49-2.09v-.04c0-1.39-.97-2.11-2.55-2.11h-3.23v4.24h3.29Z"/>
          <path class="cls-8" d="M346.47,113.55v-.04c0-4.2,3.31-7.64,7.87-7.64s7.83,3.4,7.83,7.6v.04c0,4.2-3.31,7.64-7.87,7.64s-7.83-3.4-7.83-7.6ZM358.78,113.55v-.04c0-2.53-1.86-4.64-4.47-4.64s-4.43,2.07-4.43,4.6v.04c0,2.53,1.86,4.64,4.47,4.64s4.43-2.07,4.43-4.6Z"/>
          <path class="cls-8" d="M365.67,106.12h11.25v2.96h-8v3.14h7.05v2.95h-7.05v5.72h-3.25v-14.77Z"/>
          <path class="cls-8" d="M380.13,106.12h11.14v2.89h-7.91v3h6.96v2.89h-6.96v3.1h8.02v2.89h-11.25v-14.77Z"/>
          <path class="cls-8" d="M393.86,118.74l1.92-2.3c1.33,1.1,2.72,1.79,4.41,1.79,1.33,0,2.13-.53,2.13-1.39v-.04c0-.82-.51-1.25-2.97-1.88-2.98-.76-4.9-1.58-4.9-4.52v-.04c0-2.68,2.15-4.45,5.17-4.45,2.15,0,3.99.68,5.49,1.88l-1.69,2.45c-1.31-.91-2.6-1.46-3.84-1.46s-1.9.57-1.9,1.29v.04c0,.97.63,1.29,3.19,1.94,3,.78,4.68,1.86,4.68,4.43v.04c0,2.93-2.24,4.58-5.42,4.58-2.24,0-4.5-.78-6.27-2.36Z"/>
          <path class="cls-8" d="M407.98,118.74l1.92-2.3c1.33,1.1,2.72,1.79,4.41,1.79,1.33,0,2.13-.53,2.13-1.39v-.04c0-.82-.51-1.25-2.98-1.88-2.98-.76-4.9-1.58-4.9-4.52v-.04c0-2.68,2.15-4.45,5.17-4.45,2.15,0,3.99.68,5.49,1.88l-1.69,2.45c-1.31-.91-2.6-1.46-3.84-1.46s-1.9.57-1.9,1.29v.04c0,.97.63,1.29,3.19,1.94,3,.78,4.68,1.86,4.68,4.43v.04c0,2.93-2.24,4.58-5.42,4.58-2.24,0-4.49-.78-6.27-2.36Z"/>
          <path class="cls-8" d="M423.25,106.12h3.25v14.77h-3.25v-14.77Z"/>
          <path class="cls-8" d="M430.15,113.55v-.04c0-4.2,3.31-7.64,7.87-7.64s7.83,3.4,7.83,7.6v.04c0,4.2-3.31,7.64-7.87,7.64s-7.83-3.4-7.83-7.6ZM442.45,113.55v-.04c0-2.53-1.86-4.64-4.47-4.64s-4.43,2.07-4.43,4.6v.04c0,2.53,1.86,4.64,4.47,4.64s4.43-2.07,4.43-4.6Z"/>
          <path class="cls-8" d="M449.35,106.12h3l6.92,9.1v-9.1h3.21v14.77h-2.76l-7.15-9.39v9.39h-3.21v-14.77Z"/>
          <path class="cls-8" d="M471.7,106.01h3l6.33,14.88h-3.4l-1.35-3.31h-6.25l-1.35,3.31h-3.31l6.33-14.88ZM475.11,114.71l-1.96-4.79-1.96,4.79h3.93Z"/>
          <path class="cls-8" d="M483.91,106.12h3.25v11.82h7.37v2.95h-10.62v-14.77Z"/>
          <path class="cls-8" d="M509.59,106.01h3l6.33,14.88h-3.4l-1.35-3.31h-6.25l-1.35,3.31h-3.31l6.33-14.88ZM513.01,114.71l-1.96-4.79-1.96,4.79h3.92Z"/>
          <path class="cls-8" d="M521.57,114.56v-8.44h3.25v8.36c0,2.41,1.2,3.65,3.19,3.65s3.19-1.2,3.19-3.54v-8.46h3.25v8.34c0,4.47-2.51,6.67-6.48,6.67s-6.39-2.22-6.39-6.56Z"/>
          <path class="cls-8" d="M538.37,106.12h5.76c4.64,0,7.85,3.19,7.85,7.34v.04c0,4.16-3.21,7.39-7.85,7.39h-5.76v-14.77ZM541.62,109.05v8.91h2.51c2.66,0,4.45-1.79,4.45-4.41v-.04c0-2.62-1.79-4.45-4.45-4.45h-2.51Z"/>
          <path class="cls-8" d="M555.63,106.12h3.25v14.77h-3.25v-14.77Z"/>
          <path class="cls-8" d="M562.52,113.55v-.04c0-4.2,3.31-7.64,7.87-7.64s7.83,3.4,7.83,7.6v.04c0,4.2-3.31,7.64-7.87,7.64s-7.83-3.4-7.83-7.6ZM574.83,113.55v-.04c0-2.53-1.86-4.64-4.47-4.64s-4.43,2.07-4.43,4.6v.04c0,2.53,1.86,4.64,4.47,4.64s4.43-2.07,4.43-4.6Z"/>
          <path class="cls-8" d="M592.11,109.11h-4.5v-3h12.24v3h-4.5v11.78h-3.25v-11.78Z"/>
          <path class="cls-8" d="M602.3,113.55v-.04c0-4.2,3.31-7.64,7.87-7.64s7.83,3.4,7.83,7.6v.04c0,4.2-3.31,7.64-7.87,7.64s-7.83-3.4-7.83-7.6ZM614.6,113.55v-.04c0-2.53-1.86-4.64-4.47-4.64s-4.43,2.07-4.43,4.6v.04c0,2.53,1.86,4.64,4.47,4.64s4.43-2.07,4.43-4.6Z"/>
          <path class="cls-8" d="M620.84,113.55v-.04c0-4.2,3.31-7.64,7.87-7.64s7.83,3.4,7.83,7.6v.04c0,4.2-3.31,7.64-7.87,7.64s-7.83-3.4-7.83-7.6ZM633.15,113.55v-.04c0-2.53-1.86-4.64-4.47-4.64s-4.43,2.07-4.43,4.6v.04c0,2.53,1.86,4.64,4.47,4.64s4.43-2.07,4.43-4.6Z"/>
          <path class="cls-8" d="M640.04,106.12h3.25v11.82h7.37v2.95h-10.62v-14.77Z"/>
          <path class="cls-8" d="M652.7,118.74l1.92-2.3c1.33,1.1,2.72,1.79,4.41,1.79,1.33,0,2.13-.53,2.13-1.39v-.04c0-.82-.51-1.25-2.98-1.88-2.98-.76-4.9-1.58-4.9-4.52v-.04c0-2.68,2.15-4.45,5.17-4.45,2.15,0,3.99.68,5.49,1.88l-1.69,2.45c-1.31-.91-2.6-1.46-3.84-1.46s-1.9.57-1.9,1.29v.04c0,.97.63,1.29,3.19,1.94,3,.78,4.69,1.86,4.69,4.43v.04c0,2.93-2.24,4.58-5.42,4.58-2.24,0-4.5-.78-6.27-2.36Z"/>
          <path class="cls-8" d="M674.31,117.51h3.42v3.38h-3.42v-3.38Z"/>
          <path class="cls-8" d="M688.36,106.12h11.25v2.96h-8v3.14h7.05v2.95h-7.05v5.72h-3.25v-14.77Z"/>
          <path class="cls-8" d="M707.88,106.01h3l6.33,14.88h-3.4l-1.35-3.31h-6.25l-1.35,3.31h-3.31l6.33-14.88ZM711.3,114.71l-1.96-4.79-1.96,4.79h3.92Z"/>
          <path class="cls-8" d="M719.08,118.74l1.92-2.3c1.33,1.1,2.72,1.79,4.41,1.79,1.33,0,2.13-.53,2.13-1.39v-.04c0-.82-.51-1.25-2.98-1.88-2.98-.76-4.9-1.58-4.9-4.52v-.04c0-2.68,2.15-4.45,5.17-4.45,2.15,0,3.99.68,5.49,1.88l-1.69,2.45c-1.31-.91-2.6-1.46-3.84-1.46s-1.9.57-1.9,1.29v.04c0,.97.63,1.29,3.19,1.94,3,.78,4.69,1.86,4.69,4.43v.04c0,2.93-2.24,4.58-5.42,4.58-2.24,0-4.5-.78-6.27-2.36Z"/>
          <path class="cls-8" d="M737.65,109.11h-4.5v-3h12.24v3h-4.5v11.78h-3.25v-11.78Z"/>
          <path class="cls-8" d="M754.97,117.51h3.42v3.38h-3.42v-3.38Z"/>
          <path class="cls-8" d="M769.02,106.12h11.25v2.96h-8v3.14h7.05v2.95h-7.05v5.72h-3.25v-14.77Z"/>
          <path class="cls-8" d="M783.47,106.12h6.75c1.88,0,3.33.53,4.3,1.5.82.82,1.27,1.98,1.27,3.38v.04c0,2.38-1.29,3.88-3.17,4.58l3.61,5.28h-3.8l-3.17-4.73h-2.55v4.73h-3.25v-14.77ZM790.02,113.29c1.58,0,2.49-.84,2.49-2.09v-.04c0-1.39-.97-2.11-2.55-2.11h-3.23v4.24h3.29Z"/>
          <path class="cls-8" d="M799.34,106.12h11.14v2.89h-7.91v3h6.96v2.89h-6.96v3.1h8.02v2.89h-11.25v-14.77Z"/>
          <path class="cls-8" d="M814.09,106.12h11.14v2.89h-7.91v3h6.96v2.89h-6.96v3.1h8.02v2.89h-11.25v-14.77Z"/>
          <path class="cls-8" d="M835.31,117.51h3.42v3.38h-3.42v-3.38Z"/>
          <path class="cls-8" d="M848.71,113.55v-.04c0-4.2,3.31-7.64,7.87-7.64s7.83,3.4,7.83,7.6v.04c0,4.2-3.31,7.64-7.87,7.64s-7.83-3.4-7.83-7.6ZM861.01,113.55v-.04c0-2.53-1.86-4.64-4.47-4.64s-4.43,2.07-4.43,4.6v.04c0,2.53,1.86,4.64,4.47,4.64s4.43-2.07,4.43-4.6Z"/>
          <path class="cls-8" d="M867.91,106.12h3l6.92,9.1v-9.1h3.21v14.77h-2.76l-7.15-9.39v9.39h-3.21v-14.77Z"/>
          <path class="cls-8" d="M885.19,106.12h3.25v11.82h7.37v2.95h-10.62v-14.77Z"/>
          <path class="cls-8" d="M899.01,106.12h3.25v14.77h-3.25v-14.77Z"/>
          <path class="cls-8" d="M906.56,106.12h3l6.92,9.1v-9.1h3.21v14.77h-2.76l-7.15-9.39v9.39h-3.21v-14.77Z"/>
          <path class="cls-8" d="M923.84,106.12h11.14v2.89h-7.91v3h6.96v2.89h-6.96v3.1h8.02v2.89h-11.25v-14.77Z"/>
        </g>
      </g>
      <rect class="cls-7" x="258.07" y="13.17" width="4.35" height="111.58"/>
    </g>
  </g>
</svg>
